<?xml version="1.0" encoding="utf-8"?>
<!-- Generator: Adobe Illustrator 21.1.0, SVG Export Plug-In . SVG Version: 6.00 Build 0)  -->
<svg version="1.1" id="Illustrations" xmlns="http://www.w3.org/2000/svg" xmlns:xlink="http://www.w3.org/1999/xlink" x="0px"
	 y="0px" viewBox="0 0 197 211" style="enable-background:new 0 0 197 211;" xml:space="preserve">
<style type="text/css">
	.st0{fill:#FFFFFF;}
	.st1{fill:#CCEFFF;}
	.st2{fill:none;stroke:#1050FF;stroke-width:2;stroke-linejoin:round;stroke-miterlimit:10;}
	.st3{fill:none;stroke:#1050FF;stroke-width:2;stroke-linecap:round;stroke-linejoin:round;stroke-miterlimit:10;}
	.st4{fill:#FFFFFF;stroke:#1050FF;stroke-width:2;stroke-linecap:round;stroke-linejoin:round;stroke-miterlimit:10;}
	.st5{fill:#CCEFFF;stroke:#1050FF;stroke-width:2;stroke-linejoin:round;stroke-miterlimit:10;}
	.st6{fill:#FFFFFF;stroke:#1050FF;stroke-width:2;stroke-linejoin:round;stroke-miterlimit:10;}
	.st7{fill:#CCEFFF;stroke:#1050FF;stroke-width:2;stroke-linecap:round;stroke-linejoin:round;stroke-miterlimit:10;}
	.st8{fill:none;stroke:#1050FF;stroke-width:2;stroke-linecap:round;stroke-linejoin:round;}
	.st9{fill:#1050FF;}
	.st10{fill:none;stroke:#1050FF;stroke-width:2;stroke-linecap:round;stroke-miterlimit:10;}
	.st11{fill:#FFFFFF;stroke:#1050FF;stroke-width:2;stroke-linecap:round;stroke-linejoin:round;}
</style>
<g id="New_Symbol_16_">
</g>
<g id="New_Symbol_17_">
	<g id="New_Symbol">
	</g>
</g>
<g id="New_Symbol_6_12_">
</g>
<g id="New_Symbol_6_14_">
</g>
<g id="New_Symbol_6_15_">
</g>
<g id="New_Symbol_6_17_">
</g>
<g id="New_Symbol_6_16_">
</g>
<g id="New_Symbol_18_">
</g>
<g id="New_Symbol_9">
</g>
<g id="New_Symbol_6_20_">
</g>
<g id="New_Symbol_6_19_">
</g>
<g id="New_Symbol_6_18_">
</g>
<g id="Layer_19">
</g>
<g>
	<line class="st3" x1="19" y1="115.7" x2="19" y2="98.9"/>
	<line class="st3" x1="68.2" y1="177.6" x2="48.6" y2="166.4"/>
	<line class="st3" x1="141.5" y1="169.2" x2="126.8" y2="177.6"/>
	<line class="st3" x1="176" y1="98.9" x2="176" y2="115.7"/>
	<line class="st3" x1="126.8" y1="31.4" x2="141.5" y2="39.8"/>
	<line class="st3" x1="43.7" y1="45.4" x2="68.2" y2="31.4"/>
	<g id="Duotone">
		<polygon class="st0" points="116,194 116,170 80,170 80,194 76,206 79,210 117,210 120,206 		"/>
		<polygon class="st1" points="116,170 116,194 80,194 		"/>
		<polygon class="st1" points="76,206 79,210 117,210 120,206 		"/>
		<rect x="80" y="170" class="st8" width="36" height="24"/>
		<polyline class="st8" points="116,194 120,206 76,206 80,194 		"/>
		<polygon class="st8" points="76,206 79,210 117,210 120,206 		"/>
		<polyline class="st8" points="92,206 94,202 102,202 104,206 		"/>
	</g>
	<g>
		<polygon class="st0" points="192,89 154,89 158,81 188,81 		"/>
		<polygon class="st0" points="196,71 196,43 152,43 152,71 170,71 170,74 166,77 182,77 178,74 178,71 		"/>
		<polygon class="st1" points="196,43 152,65 196,65 		"/>
		<rect x="152" y="43" class="st3" width="44" height="28"/>
		<line class="st3" x1="152" y1="65" x2="196" y2="65"/>
		<polyline class="st3" points="178,71 178,74 182,77 166,77 170,74 170,71 		"/>
		<polygon class="st3" points="192,89 154,89 158,81 188,81 		"/>
		<line class="st3" x1="160" y1="85" x2="162" y2="85"/>
		<line class="st3" x1="166" y1="85" x2="168" y2="85"/>
		<line class="st3" x1="172" y1="85" x2="174" y2="85"/>
		<line class="st3" x1="178" y1="85" x2="180" y2="85"/>
		<line class="st3" x1="184" y1="85" x2="186" y2="85"/>
	</g>
	<g id="Duotone_2_">
		<rect x="1" y="124" class="st0" width="36" height="46"/>
		<path class="st1" d="M1,162h36v-38L1,162z M21,150h-4v-4h4V150z M29,142h-4v-4h4V142z"/>
		<rect x="9" y="130" class="st3" width="4" height="4"/>
		<rect x="17" y="130" class="st3" width="4" height="4"/>
		<rect x="9" y="138" class="st3" width="4" height="4"/>
		<rect x="17" y="138" class="st3" width="4" height="4"/>
		<rect x="9" y="146" class="st3" width="4" height="4"/>
		<rect x="25" y="130" class="st3" width="4" height="4"/>
		<rect x="25" y="138" class="st3" width="4" height="4"/>
		<rect x="17" y="146" class="st3" width="4" height="4"/>
		<rect x="1" y="124" class="st3" width="36" height="46"/>
		<line class="st3" x1="37" y1="162" x2="1" y2="162"/>
		<line class="st3" x1="17" y1="166" x2="21" y2="166"/>
	</g>
	<g id="Duotone_1_">
		<rect x="149" y="127" class="st0" width="46" height="36"/>
		<path class="st1" d="M188.4,139h0.6v4h-7.1l-6.6,4H189v4h-16v-2.6l-4,2.4v8.2h-13.4l-6.6,4h46v-28L188.4,139z M189,159h-16v-4h16
			V159z"/>
		<g>
			<line class="st10" x1="153" y1="131" x2="155" y2="131"/>
			<line class="st10" x1="159" y1="131" x2="161" y2="131"/>
			<line class="st10" x1="165" y1="131" x2="167" y2="131"/>
			<rect x="149" y="127" class="st8" width="46" height="36"/>
			<line class="st8" x1="149" y1="135" x2="195" y2="135"/>
			<rect x="173" y="147" class="st8" width="16" height="4"/>
			<rect x="173" y="139" class="st8" width="16" height="4"/>
			<rect x="173" y="155" class="st8" width="16" height="4"/>
			<rect x="153" y="139" class="st8" width="16" height="20"/>
			<polygon class="st8" points="165,151 161,153 157,151 157,146 161,144 165,146 			"/>
			<polyline class="st8" points="153,159 156,155 166,155 169,159 			"/>
		</g>
	</g>
	<g>
		<polygon class="st0" points="36,59 33,59 33,51 28,47 27,43 7,43 6,47 1,51 1,79 6,83 7,87 27,87 28,83 33,79 33,65 36,65 37,62 
					"/>
		<polygon class="st1" points="17,72 27,62 22,56 17,60 		"/>
		<polygon class="st1" points="24.2,58.7 27,62 17,72 13.3,68.3 1,79 33,79 33,51 		"/>
		<rect x="1" y="51" class="st3" width="32" height="28"/>
		<polyline class="st3" points="33,51 28,47 27,43 7,43 6,47 1,51 		"/>
		<polyline class="st3" points="33,79 28,83 27,87 7,87 6,83 1,79 		"/>
		<polyline class="st3" points="33,59 36,59 37,62 36,65 33,65 		"/>
		<line class="st3" x1="6" y1="47" x2="28" y2="47"/>
		<line class="st3" x1="6" y1="83" x2="28" y2="83"/>
		<polygon class="st2" points="17,72 27,62 22,56 17,60 12,56 7,62 		"/>
		<polygon class="st3" points="17,72 27,62 22,56 17,60 12,56 7,62 		"/>
		<polygon class="st2" points="17,72 27,62 22,56 17,60 12,56 7,62 		"/>
	</g>
	<g>
		<polyline class="st0" points="82.5,25 83.5,29 94.5,29 99.5,21 104.5,29 115.5,29 119.5,13 79.5,13 81,19 		"/>
		<polygon class="st1" points="115.5,29 119.5,13 112.4,13 101.4,24 104.5,29 		"/>
		<polygon class="st1" points="88.5,25 76.5,25 75.5,19 91.5,19 		"/>
		<polyline class="st3" points="79.5,13 91,1 95.5,1 		"/>
		<polyline class="st3" points="119.5,13 108,1 103.5,1 		"/>
		<polygon class="st3" points="88.5,25 76.5,25 75.5,19 91.5,19 		"/>
		<polyline class="st3" points="82.5,25 83.5,29 94.5,29 99.5,21 104.5,29 115.5,29 119.5,13 79.5,13 81,19 		"/>
	</g>
</g>
</svg>
