<?xml version="1.0" encoding="utf-8"?>
<!-- Generator: Adobe Illustrator 21.1.0, SVG Export Plug-In . SVG Version: 6.00 Build 0)  -->
<svg version="1.1" id="Illustrations" xmlns="http://www.w3.org/2000/svg" xmlns:xlink="http://www.w3.org/1999/xlink" x="0px"
	 y="0px" viewBox="0 0 193 208" style="enable-background:new 0 0 193 208;" xml:space="preserve">
<style type="text/css">
	.st0{fill:#FFFFFF;}
	.st1{fill:#CCEFFF;}
	.st2{fill:none;stroke:#1050FF;stroke-width:2;stroke-linejoin:round;stroke-miterlimit:10;}
	.st3{fill:none;stroke:#1050FF;stroke-width:2;stroke-linecap:round;stroke-linejoin:round;stroke-miterlimit:10;}
	.st4{fill:#FFFFFF;stroke:#1050FF;stroke-width:2;stroke-linecap:round;stroke-linejoin:round;stroke-miterlimit:10;}
	.st5{fill:#CCEFFF;stroke:#1050FF;stroke-width:2;stroke-linejoin:round;stroke-miterlimit:10;}
	.st6{fill:#FFFFFF;stroke:#1050FF;stroke-width:2;stroke-linejoin:round;stroke-miterlimit:10;}
	.st7{fill:#CCEFFF;stroke:#1050FF;stroke-width:2;stroke-linecap:round;stroke-linejoin:round;stroke-miterlimit:10;}
	.st8{fill:none;stroke:#1050FF;stroke-width:2;stroke-linecap:round;stroke-linejoin:round;}
	.st9{fill:#1050FF;}
	.st10{fill:none;stroke:#1050FF;stroke-width:2;stroke-linecap:round;stroke-miterlimit:10;}
	.st11{fill:#FFFFFF;stroke:#1050FF;stroke-width:2;stroke-linecap:round;stroke-linejoin:round;}
</style>
<g id="New_Symbol_16_">
</g>
<g id="New_Symbol_17_">
	<g id="New_Symbol">
	</g>
</g>
<g id="New_Symbol_6_12_">
</g>
<g id="New_Symbol_6_14_">
</g>
<g id="New_Symbol_6_15_">
</g>
<g id="New_Symbol_6_17_">
</g>
<g id="New_Symbol_6_16_">
</g>
<g id="New_Symbol_18_">
</g>
<g id="New_Symbol_9">
</g>
<g id="New_Symbol_6_20_">
</g>
<g id="New_Symbol_6_19_">
</g>
<g id="New_Symbol_6_18_">
</g>
<g id="Layer_19">
</g>
<g>
	<polygon class="st0" points="102,116 105.1,138.5 116,136.5 116,110 111,110 	"/>
	<polygon class="st0" points="90,116 86.9,138.5 76,136.5 76,110 81,110 	"/>
	<polygon class="st0" points="119,136 102,139 99,186 106.5,196.5 124,195 129,184 	"/>
	<polygon class="st0" points="124,195 132,207 103,207 106.5,196.5 	"/>
	<polygon class="st0" points="73,136 90,139 93,186 85.5,196.5 68,195 63,184 	"/>
	<polygon class="st0" points="68,195 60,207 89,207 85.5,196.5 	"/>
	<polygon class="st0" points="102,100 112,95 116,110 111,110 96,120 	"/>
	<polygon class="st0" points="90,100 80,95 76,110 81,110 96,120 	"/>
	<polygon class="st0" points="90,100 102,100 96,120 	"/>
	<polygon class="st0" points="134,99 136.8,100.8 139,115 122,116 123,102 125,100 	"/>
	<polygon class="st0" points="58,99 55.2,100.8 53,115 70,116 69,102 67,100 	"/>
	<polygon class="st0" points="108,97 113,84 104,84 96,92 88,84 79,84 84,97 90,100 102,100 	"/>
	<polygon class="st0" points="96,92 104,84 118,84 121.4,79 119,65 110,61 96,73 	"/>
	<polygon class="st0" points="119.4,67.2 127,65 135,69 133,79 134,99 125,100 	"/>
	<polygon class="st0" points="96,92 88,84 74,84 70.6,79 73,65 82,61 96,73 	"/>
	<polygon class="st0" points="72.6,67.2 65,65 57,69 59,79 58,99 67,100 	"/>
	<polygon class="st0" points="96,63 110,54 107,41 96,32 85,41 82,54 	"/>
	<path class="st1" d="M96,38c0,0-11.9,9.7-12.7,10.4L82,54l14,9l14-9l-1.3-5.6L96,38z"/>
	<g>
		<line class="st3" x1="10" y1="207" x2="184" y2="207"/>
		<line class="st3" x1="189" y1="207" x2="192" y2="207"/>
		<line class="st3" x1="1" y1="207" x2="4" y2="207"/>
	</g>
	<polygon class="st11" points="190,42 141,42 133,50.5 133,1 190,1 	"/>
	<polygon class="st4" points="88,49.5 93.5,49.5 93.5,46 89,43.5 	"/>
	<polygon class="st4" points="104,49.5 98.5,49.5 98.5,46 103,43.5 	"/>
	<polygon class="st6" points="109.6,52.4 121,39 114,25 115,36 107.2,41.9 	"/>
	<polygon class="st6" points="82.4,52.4 71,39 78,25 77,36 84.8,41.9 	"/>
	<polygon class="st2" points="96,63 110,54 107,41 96,32 85,41 82,54 	"/>
	<polygon class="st1" points="109,100 111.7,110 111,110 96,120 100.8,104.1 	"/>
	<polygon class="st1" points="111,137.4 105.1,138.5 102,116 111,110 	"/>
	<polygon class="st1" points="118,78 120.6,74.2 121.4,79 118,84 104,84 96,92 96,86 104,78 	"/>
	<polygon class="st1" points="122,116 123,102 125,100 132,99.2 135,115.2 	"/>
	<polygon class="st1" points="126.2,69.9 130.4,72 129,79 130.9,99.3 125,100 120.1,71.6 	"/>
	<polygon class="st1" points="99,186 102,139 113.1,137 122.4,184.5 118,195.5 106.5,196.5 	"/>
	<polygon class="st1" points="113,84 111.1,88.9 104.2,89.5 96,96.5 96,92 104,84 	"/>
	<polygon class="st1" points="117,195.6 125,207 103,207 106.5,196.5 	"/>
	<polygon class="st2" points="102,100 112,95 116,110 111,110 96,120 	"/>
	<polygon class="st2" points="102,116 105.1,138.5 116,136.5 116,110 111,110 	"/>
	<polygon class="st2" points="119,136 102,139 99,186 106.5,196.5 124,195 129,184 	"/>
	<polygon class="st2" points="124,195 132,207 103,207 106.5,196.5 	"/>
	<polygon class="st6" points="119.7,195.4 111,142 112.3,196 	"/>
	<polygon class="st2" points="96,92 104,84 118,84 121.4,79 119,65 110,61 96,73 	"/>
	<polygon class="st2" points="134,99 136.8,100.8 139,115 122,116 123,102 125,100 	"/>
	<polygon class="st6" points="136,115.2 138,129 131,140 128,138 131,129 129,124 124,132 121.5,131 125,115.8 	"/>
	<polygon class="st6" points="132.5,115.4 129,99.6 127.5,115.7 	"/>
	<polygon class="st2" points="119.4,67.2 127,65 135,69 133,79 134,99 125,100 	"/>
	<line class="st2" x1="133" y1="79" x2="121.4" y2="79"/>
	<polygon class="st1" points="83,100 80.3,110 81,110 96,120 91.2,104.1 	"/>
	<polygon class="st1" points="81,137.4 86.9,138.5 90,116 81,110 	"/>
	<polygon class="st1" points="74,78 71.4,74.2 70.6,79 74,84 88,84 96,92 96,86 88,78 	"/>
	<polygon class="st1" points="70,116 69,102 67,100 60,99.2 57,115.2 	"/>
	<polygon class="st1" points="65.8,69.9 61.6,72 63,79 61.1,99.3 67,100 71.9,71.6 	"/>
	<polygon class="st1" points="93,186 90,139 78.9,137 69.6,184.5 74,195.5 85.5,196.5 	"/>
	<polygon class="st1" points="79,84 80.9,88.9 87.8,89.5 96,96.5 96,92 88,84 	"/>
	<polygon class="st1" points="75,195.6 67,207 89,207 85.5,196.5 	"/>
	<polygon class="st2" points="90,100 80,95 76,110 81,110 96,120 	"/>
	<polygon class="st2" points="90,116 86.9,138.5 76,136.5 76,110 81,110 	"/>
	<polygon class="st2" points="73,136 90,139 93,186 85.5,196.5 68,195 63,184 	"/>
	<polygon class="st2" points="68,195 60,207 89,207 85.5,196.5 	"/>
	<polygon class="st6" points="72.3,195.4 81,142 79.7,196 	"/>
	<polygon class="st2" points="96,92 88,84 74,84 70.6,79 73,65 82,61 96,73 	"/>
	<polygon class="st2" points="58,99 55.2,100.8 53,115 70,116 69,102 67,100 	"/>
	<polygon class="st6" points="56,115.2 54,129 61,140 64,138 61,129 63,124 68,132 70.5,131 67,115.8 	"/>
	<polygon class="st6" points="59.5,115.4 63,99.6 64.5,115.7 	"/>
	<polygon class="st2" points="72.6,67.2 65,65 57,69 59,79 58,99 67,100 	"/>
	<line class="st2" x1="59" y1="79" x2="70.6" y2="79"/>
	<polygon class="st2" points="167,20.5 161,20.5 161,8.5 151,22.5 158,22.5 158,34.5 	"/>
	<polygon class="st4" points="91,59.8 91,54 96,56.5 101,54 101,59.8 96,63 	"/>
	<polygon class="st6" points="106.7,63.8 102.8,58.6 96,63 89.2,58.6 85.3,63.8 96,73 	"/>
	<polygon class="st2" points="108,97 113,84 104,84 96,92 88,84 79,84 84,97 90,100 102,100 	"/>
	<polygon class="st2" points="90,100 102,100 96,120 	"/>
</g>
</svg>
