<svg id="Layer_1" data-name="Layer 1" xmlns="http://www.w3.org/2000/svg" viewBox="0 0 289 289"><defs><style>.cls-1{fill:#0d4c80;}.cls-2{fill:#e07a5f;}</style></defs><title>wirt-bot-logo</title><path class="cls-1" d="M229.16,175.05c-2.89-48.32-39.6-86.64-84.66-87.22-45.06.58-81.77,38.9-84.66,87.22a5.59,5.59,0,0,0,5.31,6.14H90.64a4.59,4.59,0,0,0,4.58-4c1.65-13.68,11.65-19.56,18.57-19.56s15.24,6.82,16.75,19.45a4.59,4.59,0,0,0,4.54,4.1h18.84a4.59,4.59,0,0,0,4.54-4.1c1.51-12.63,9.89-19.45,16.75-19.45s16.92,5.88,18.57,19.56a4.59,4.59,0,0,0,4.58,4h25.49A5.59,5.59,0,0,0,229.16,175.05Z"/><rect class="cls-1" x="109.69" y="192.78" width="69.62" height="28.44" rx="8.65"/><circle class="cls-2" cx="76.87" cy="82.02" r="14.24"/></svg>