<svg id="Layer_1" data-name="Layer 1" xmlns="http://www.w3.org/2000/svg" viewBox="0 0 399.74 153.45"><defs><style>.cls-1{fill:#0d4c80;}.cls-2{fill:#e07a5f;}</style></defs><title>wirt-logo</title><path class="cls-1" d="M253.66,186.55c-2.89-48.32-39.61-86.64-84.66-87.22-45.06.58-81.78,38.9-84.67,87.22a5.6,5.6,0,0,0,5.31,6.14h25.49a4.6,4.6,0,0,0,4.59-4c1.64-13.68,11.65-19.56,18.57-19.56S153.53,176,155,188.59a4.59,4.59,0,0,0,4.53,4.1h18.85a4.59,4.59,0,0,0,4.53-4.1c1.51-12.63,9.89-19.45,16.75-19.45s16.93,5.88,18.58,19.56a4.59,4.59,0,0,0,4.58,4h25.49A5.6,5.6,0,0,0,253.66,186.55Z" transform="translate(-84.32 -79.27)"/><rect class="cls-1" x="49.87" y="125.01" width="69.62" height="28.44" rx="8.65"/><circle class="cls-2" cx="17.05" cy="14.24" r="14.24"/><path class="cls-1" d="M336.25,140.57l7.35,26.29c.14.52.32,1.44.55,2.75s.63,4,1.21,8.07q.47-2.38,1.17-5t1.73-5.9l7.92-26.19h16.05l-17.6,50.77H338.89l-7.6-26.29-.68-2.33q-1.71-5.94-2.48-9.73-.67,3.52-1.32,6.42t-1.37,5.44l-7.82,26.49H301.94l-17.6-50.77h16.1l7.76,25.21c.69,2.27,1.26,4.34,1.71,6.18s.83,3.74,1.14,5.67c.27-2.11.6-4.13,1-6.08s.83-3.84,1.35-5.67l6.78-25.31Z" transform="translate(-84.32 -79.27)"/><path class="cls-1" d="M380.78,119.71a8.66,8.66,0,0,1,8.59-8.59,8.45,8.45,0,0,1,6.13,2.51,8.19,8.19,0,0,1,2.57,6.08,8.29,8.29,0,0,1-2.57,6.11,8.4,8.4,0,0,1-6.13,2.54,8.21,8.21,0,0,1-6.06-2.59A8.4,8.4,0,0,1,380.78,119.71Zm1.29,71.63V140.57h14.7v50.77Z" transform="translate(-84.32 -79.27)"/><path class="cls-1" d="M428.72,153.61q2.22-7.4,6.39-11.07a15.06,15.06,0,0,1,10.33-3.68,34,34,0,0,1,4.6.52l.94.16-2.23,15.83a19.66,19.66,0,0,0-3.34-1,18.34,18.34,0,0,0-3.54-.33q-6.74,0-9.68,3.44T429.24,169v22.35H414.49V140.57H429Z" transform="translate(-84.32 -79.27)"/><path class="cls-1" d="M462.22,191.34V152.11h-7.09V140.57h7.09V123.7H477v16.87h7.09v11.54H477v39.23Z" transform="translate(-84.32 -79.27)"/></svg>