<svg xmlns="http://www.w3.org/2000/svg" viewBox="0 0 1170.37 354.69"><defs><style>.cls-1{fill:#0f4b81;}</style></defs><title>Layer 2</title><g id="Layer_2" data-name="Layer 2"><g id="Layer_2-2" data-name="Layer 2"><polygon class="cls-1" points="1170.37 354.59 1071.79 354.59 1071.81 337.72 1153.37 337.59 1153.37 17 1094.39 17 1094.39 0 1170.37 0 1170.37 354.59"/><polygon class="cls-1" points="106.03 354.69 0 354.69 0 0.05 1105.08 0.05 1105.08 17.05 17 17.05 17 337.69 105.33 337.92 106.03 354.69"/><path class="cls-1" d="M468.93,337.83v16.86H322.71L265.09,166.92H262L204.33,354.69H58.11V337.83h94.48L62.82,80.68H112.6l69,197.18L242.75,80.68H284.3l61.15,197.18,69-197.18h49.79L374.46,337.83Z"/><path class="cls-1" d="M507,337.71V80.56h46.26V337.71h38v16.86H468.93V337.71Z"/><path class="cls-1" d="M886.4,337.71v16.86H801.73l-65.46-92.12H675.51v92.12H591.23V337.71h38V80.56H731.17q62.72,0,89.77,21.17t27,67.82q0,67.81-59.19,85.45l59.58,82.71Zm-100-129.36q14.12-12.14,14.12-39T786.05,132.5q-14.5-10-51.74-10h-58.8v98h57.62Q772.33,220.51,786.44,208.35Z"/><path class="cls-1" d="M1109.45,337.71v16.86H872.69V337.71h95.25V122.9h-83.1V80.56H1097.3V122.9h-83.1V337.71Z"/></g></g></svg>